<svg xmlns="http://www.w3.org/2000/svg" width="390" height="844" viewBox="0 0 390 844" role="img"><title>Osh CRM design — illustrative data</title><rect x="0" y="0" width="390" height="844" rx="0" fill="#F7F8F4"/><text x="20" y="30" font-family="Inter, Arial, sans-serif" font-size="13" font-weight="600" fill="#18382D">9:41</text><text x="307" y="30" font-family="Inter, Arial, sans-serif" font-size="13" font-weight="400" fill="#18382D">•••  ▰</text><text x="20" y="77" font-family="Inter, Arial, sans-serif" font-size="28" font-weight="700" fill="#18382D">osh.</text><text x="275" y="73" font-family="Inter, Arial, sans-serif" font-size="12" font-weight="400" fill="#68766E">EN / RU</text><rect x="344" y="52" width="28" height="28" rx="14" fill="#E5EFE7"/><text x="353" y="72" font-family="Inter, Arial, sans-serif" font-size="12" font-weight="600" fill="#176B4B">A</text><text x="20" y="123" font-family="Inter, Arial, sans-serif" font-size="26" font-weight="600" fill="#18382D">Find your next client.</text><rect x="0" y="770" width="390" height="74" rx="0" fill="#FFFFFF"/><path d="M0 770H390" stroke="#DFE5DD"/><g data-screen="mobile-catalogue" style="cursor:pointer"><g transform="translate(39 781) scale(0.8333333333333334)" fill="none" stroke="#176B4B" stroke-width="1.7" stroke-linecap="round" stroke-linejoin="round"><path d="M3 3h7v7H3z M14 3h7v7h-7z M3 14h7v7H3z M14 14h7v7h-7z"/></g><text x="30" y="821" font-family="Inter, Arial, sans-serif" font-size="11" font-weight="600" fill="#176B4B">Directory</text></g><g data-screen="pipeline" style="cursor:pointer"><g transform="translate(141 781) scale(0.8333333333333334)" fill="none" stroke="#68766E" stroke-width="1.7" stroke-linecap="round" stroke-linejoin="round"><path d="M4 4h5v16H4z M15 4h5v10h-5z"/></g><text x="132" y="821" font-family="Inter, Arial, sans-serif" font-size="11" font-weight="400" fill="#68766E">Pipeline</text></g><g transform="translate(241 781) scale(0.8333333333333334)" fill="none" stroke="#68766E" stroke-width="1.7" stroke-linecap="round" stroke-linejoin="round"><path d="M5 12l4 4L19 6"/></g><text x="232" y="821" font-family="Inter, Arial, sans-serif" font-size="11" font-weight="400" fill="#68766E">Tasks</text><g transform="translate(329 781) scale(0.8333333333333334)" fill="none" stroke="#68766E" stroke-width="1.7" stroke-linecap="round" stroke-linejoin="round"><path d="M4 7h16 M4 17h16 M9 4v6 M16 14v6"/></g><text x="320" y="821" font-family="Inter, Arial, sans-serif" font-size="11" font-weight="400" fill="#68766E">More</text><rect x="139" y="835" width="112" height="4" rx="2" fill="#18382D"/><text x="20" y="148" font-family="Inter, Arial, sans-serif" font-size="12" font-weight="400" fill="#68766E">Osh directory · Demo data</text><rect x="20" y="168" width="350" height="48" rx="10" fill="#FFFFFF" stroke="#DFE5DD"/><g transform="translate(34 182) scale(0.8333333333333334)" fill="none" stroke="#68766E" stroke-width="1.7" stroke-linecap="round" stroke-linejoin="round"><path d="M20 20l-5-5 M17 10a7 7 0 1 1-14 0 7 7 0 0 1 14 0"/></g><text x="66" y="198" font-family="Inter, Arial, sans-serif" font-size="14" font-weight="400" fill="#68766E">Search businesses…</text><rect x="20" y="230" width="150" height="44" rx="8" fill="#FFFFFF" stroke="#DFE5DD"/><text x="36" y="257.0" font-family="Inter, Arial, sans-serif" font-size="14" font-weight="500" fill="#18382D">Filters · 3</text><rect x="182" y="230" width="188" height="44" rx="8" fill="#FFFFFF" stroke="#DFE5DD"/><text x="198" y="257.0" font-family="Inter, Arial, sans-serif" font-size="14" font-weight="500" fill="#18382D">Rating: high to low</text><rect x="20" y="288" width="151" height="28" rx="7" fill="#E5EFE7"/><text x="30" y="307" font-family="Inter, Arial, sans-serif" font-size="12" font-weight="500" fill="#176B4B">Restaurants  ×</text><rect x="181" y="288" width="137" height="28" rx="7" fill="#E5EFE7"/><text x="191" y="307" font-family="Inter, Arial, sans-serif" font-size="12" font-weight="500" fill="#176B4B">Rating 4.0+  ×</text><text x="20" y="343" font-family="Inter, Arial, sans-serif" font-size="15" font-weight="600" fill="#18382D">248 businesses</text><rect x="20" y="363" width="350" height="172" rx="14" fill="#FFFFFF" stroke="#DFE5DD"/><g data-screen="mobile-company" style="cursor:pointer"><rect x="28" y="371" width="288" height="54" rx="0" fill="transparent"/><text x="36" y="395" font-family="Inter, Arial, sans-serif" font-size="18" font-weight="600" fill="#18382D">Sulaiman Coffee</text><text x="36" y="420" font-family="Inter, Arial, sans-serif" font-size="12" font-weight="400" fill="#68766E">Café &amp; coffee · Central Osh</text></g><g transform="translate(330 380) scale(0.8333333333333334)" fill="none" stroke="#68766E" stroke-width="1.7" stroke-linecap="round" stroke-linejoin="round"><path d="M12 3l2.8 5.8 6.4.9-4.6 4.5 1.1 6.4-5.7-3-5.7 3 1.1-6.4-4.6-4.5 6.4-.9Z"/></g><text x="36" y="447" font-family="Inter, Arial, sans-serif" font-size="12" font-weight="400" fill="#68766E">4.8 ★ · 124 ratings</text><rect x="210" y="428" width="143" height="28" rx="7" fill="#E5EFE7"/><text x="220" y="447" font-family="Inter, Arial, sans-serif" font-size="12" font-weight="500" fill="#176B4B">In progress</text><rect x="36" y="469" width="98" height="44" rx="8" fill="#176B4B"/><text x="52" y="496.0" font-family="Inter, Arial, sans-serif" font-size="14" font-weight="500" fill="#FFFFFF">Call</text><rect x="146" y="469" width="134" height="44" rx="8" fill="#FFFFFF" stroke="#DFE5DD"/><text x="162" y="496.0" font-family="Inter, Arial, sans-serif" font-size="14" font-weight="500" fill="#18382D">WhatsApp</text><g data-screen="mobile-company" style="cursor:pointer" role="button" aria-label="→"><rect x="292" y="469" width="62" height="44" rx="8" fill="#FFFFFF" stroke="#DFE5DD"/><text x="308" y="496.0" font-family="Inter, Arial, sans-serif" font-size="14" font-weight="500" fill="#18382D">→</text></g><rect x="20" y="551" width="350" height="172" rx="14" fill="#FFFFFF" stroke="#DFE5DD"/><g data-screen="mobile-company" style="cursor:pointer"><rect x="28" y="559" width="288" height="54" rx="0" fill="transparent"/><text x="36" y="583" font-family="Inter, Arial, sans-serif" font-size="18" font-weight="600" fill="#18382D">Silk Road Kitchen</text><text x="36" y="608" font-family="Inter, Arial, sans-serif" font-size="12" font-weight="400" fill="#68766E">Restaurant · Central Osh</text></g><g transform="translate(330 568) scale(0.8333333333333334)" fill="none" stroke="#68766E" stroke-width="1.7" stroke-linecap="round" stroke-linejoin="round"><path d="M12 3l2.8 5.8 6.4.9-4.6 4.5 1.1 6.4-5.7-3-5.7 3 1.1-6.4-4.6-4.5 6.4-.9Z"/></g><text x="36" y="635" font-family="Inter, Arial, sans-serif" font-size="12" font-weight="400" fill="#68766E">4.7 ★ · 86 ratings</text><rect x="210" y="616" width="143" height="28" rx="7" fill="#E5EFE7"/><text x="220" y="635" font-family="Inter, Arial, sans-serif" font-size="12" font-weight="500" fill="#176B4B">Not yet</text><rect x="36" y="657" width="98" height="44" rx="8" fill="#176B4B"/><text x="52" y="684.0" font-family="Inter, Arial, sans-serif" font-size="14" font-weight="500" fill="#FFFFFF">Call</text><rect x="146" y="657" width="134" height="44" rx="8" fill="#FFFFFF" stroke="#DFE5DD"/><text x="162" y="684.0" font-family="Inter, Arial, sans-serif" font-size="14" font-weight="500" fill="#18382D">WhatsApp</text><g data-screen="mobile-company" style="cursor:pointer" role="button" aria-label="→"><rect x="292" y="657" width="62" height="44" rx="8" fill="#FFFFFF" stroke="#DFE5DD"/><text x="308" y="684.0" font-family="Inter, Arial, sans-serif" font-size="14" font-weight="500" fill="#18382D">→</text></g><text x="20" y="751" font-family="Inter, Arial, sans-serif" font-size="12" font-weight="400" fill="#68766E">Showing 2 of 248 · Load more ↓</text></svg>